REM MD5 b9fb915e7a053be79353d04259a69cbf
FILE "NBA Fastbreak '98 (Europe).bin" BINARY
  TRACK 01 MODE2/2352
    INDEX 01 00:00:00
  TRACK 02 AUDIO
    INDEX 00 14:47:39
    INDEX 01 14:49:39
  TRACK 03 AUDIO
    INDEX 00 18:15:55
    INDEX 01 18:17:55
  TRACK 04 AUDIO
    INDEX 00 21:33:07
    INDEX 01 21:35:07
  TRACK 05 AUDIO
    INDEX 00 24:48:17
    INDEX 01 24:50:17
REM LEADOUT 27:58:08
